<?xml version="1.0" standalone="no"?>
<!DOCTYPE svg PUBLIC "-//W3C//DTD SVG 20010904//EN"
 "http://www.w3.org/TR/2001/REC-SVG-20010904/DTD/svg10.dtd">
<svg version="1.0" xmlns="http://www.w3.org/2000/svg"
 width="600.000000pt" height="383.000000pt" viewBox="0 0 600.000000 383.000000"
 preserveAspectRatio="xMidYMid meet">
<g transform="translate(0.000000,383.000000) scale(0.100000,-0.100000)"
fill="#000000" stroke="none">
<path d="M3033 3633 c-12 -2 -33 -15 -48 -29 -26 -24 -28 -24 -46 -8 -21 19
-116 31 -146 19 -15 -6 -14 -9 12 -20 30 -13 30 -13 -10 -14 -46 -2 -131 -34
-213 -83 -80 -47 -163 -132 -198 -203 -28 -59 -29 -63 -26 -196 2 -130 6 -153
49 -291 3 -11 -6 -21 -31 -33 -34 -16 -71 -52 -106 -102 -8 -12 -103 -86 -210
-165 -114 -84 -219 -171 -252 -207 -75 -83 -132 -194 -152 -296 -27 -139 -49
-475 -51 -795 -2 -251 -5 -315 -19 -359 -9 -30 -16 -75 -16 -99 0 -41 5 -50
55 -99 54 -53 55 -55 55 -111 0 -39 6 -67 20 -89 20 -33 20 -33 -110 -95 -71
-35 -129 -69 -130 -75 0 -7 2 -13 5 -13 2 0 179 87 392 194 379 190 388 194
408 176 34 -31 114 -69 159 -75 129 -20 240 87 339 325 13 32 34 45 260 158
245 124 245 124 300 79 86 -70 176 -89 248 -51 75 38 222 219 293 361 24 48
33 56 107 93 80 41 80 41 167 25 245 -43 706 -115 710 -110 3 3 3 8 -1 11 -3
4 -183 35 -399 71 -393 64 -393 64 -465 28 -40 -19 -73 -32 -73 -28 0 4 18 33
40 64 41 59 59 115 60 187 0 27 11 64 30 102 33 65 38 101 16 119 -12 10 -7
28 34 116 74 158 94 219 81 243 -6 11 -11 34 -11 49 0 16 -5 34 -11 40 -6 6
-16 21 -23 34 -13 27 -89 70 -175 99 -76 27 -103 19 -122 -34 -10 -27 -19 -36
-36 -36 -37 0 -63 -34 -63 -82 1 -104 19 -190 52 -240 31 -50 31 -50 5 -71
-14 -12 -37 -49 -50 -82 -19 -46 -35 -67 -68 -91 -34 -23 -50 -45 -70 -92 -14
-34 -42 -86 -63 -116 -38 -55 -38 -55 -62 -38 -13 9 -24 23 -24 29 0 7 -25 61
-55 120 -37 72 -65 146 -85 223 -17 65 -41 130 -55 149 -24 35 -24 35 16 78
21 23 47 58 56 77 12 26 24 36 49 40 57 11 126 115 104 156 -6 11 -20 20 -30
20 -23 0 -24 4 -10 30 6 11 28 24 50 30 55 15 94 51 126 117 32 65 36 149 11
221 -15 42 -15 42 18 36 34 -6 75 2 75 15 0 4 -15 12 -33 19 -50 18 -107 85
-186 220 -141 240 -284 346 -423 313 -41 -10 -51 1 -18 19 18 10 20 32 2 29
-4 -1 -17 -4 -29 -6z m-14 -52 c-17 -26 -7 -36 21 -21 13 7 49 12 80 13 125 1
241 -97 360 -303 76 -131 100 -163 154 -201 42 -31 27 -40 -24 -14 -35 18 -35
17 -10 -55 38 -107 19 -223 -47 -292 -38 -39 -47 -35 -23 12 11 21 20 49 20
62 0 30 -14 12 -28 -38 -6 -22 -23 -51 -37 -64 -26 -24 -26 -24 -19 44 5 51 4
67 -4 62 -7 -4 -12 -18 -12 -31 0 -40 -21 -75 -45 -75 -21 0 -22 2 -13 48 10
52 3 126 -18 185 -15 42 -51 97 -63 97 -5 0 -11 -24 -15 -54 -12 -106 -62
-188 -138 -227 -52 -27 -55 -24 -19 16 31 35 81 125 81 145 0 20 -16 9 -33
-22 -10 -18 -38 -48 -62 -66 -41 -31 -130 -72 -157 -72 -7 0 13 26 43 58 64
65 124 150 114 160 -4 4 -15 -4 -24 -18 -62 -94 -138 -140 -243 -148 -38 -2
-68 -2 -68 1 0 3 21 19 48 36 56 36 108 88 99 98 -4 4 -26 -11 -50 -34 -23
-22 -55 -49 -72 -60 -34 -23 -85 -38 -85 -25 0 12 93 62 114 62 9 0 16 5 16
11 0 26 -75 -6 -156 -66 -16 -12 -59 26 -80 71 -8 17 -30 40 -48 49 -30 16
-38 17 -66 5 -36 -15 -70 -63 -70 -99 0 -44 -19 -9 -40 73 -28 109 -26 179 5
284 4 12 3 22 -2 22 -6 0 -15 -10 -21 -22 -15 -32 -14 -9 2 44 47 158 255 314
434 326 39 2 72 7 72 10 0 3 -8 11 -17 18 -17 12 -16 13 4 14 12 0 35 -12 52
-26 31 -26 31 -26 61 6 33 35 50 36 29 1z m350 -747 c4 -29 4 -77 1 -106 -4
-29 -5 -57 -2 -62 2 -4 20 -6 38 -3 19 3 34 2 34 -4 0 -5 -24 -9 -52 -9 -29 0
-60 -4 -68 -10 -25 -15 -6 -20 38 -8 30 7 46 8 54 0 20 -20 -4 -32 -63 -32
-46 0 -63 -4 -79 -20 -11 -11 -20 -24 -20 -29 0 -4 -13 -8 -30 -7 -26 1 -30 5
-27 26 3 34 -46 57 -148 70 -81 10 -123 6 -140 -15 -8 -9 -32 8 -100 72 -78
73 -86 84 -60 78 84 -18 150 -17 203 3 59 23 57 9 -4 -29 -49 -30 -43 -42 17
-37 31 3 78 19 121 41 70 36 72 33 19 -25 -18 -21 -34 -28 -60 -28 -42 0 -81
-9 -81 -19 0 -4 29 -5 63 -3 46 3 73 0 95 -12 36 -19 42 -19 42 -7 0 5 -9 13
-20 16 -29 9 -25 22 10 28 71 15 142 114 165 232 8 40 8 40 27 -4 11 -24 23
-68 27 -97z m-782 54 c29 -32 43 -82 43 -149 0 -33 3 -59 6 -59 10 0 39 33 49
56 10 22 14 19 104 -64 93 -88 93 -88 86 -130 -4 -23 -12 -42 -18 -42 -17 0
-47 -32 -47 -51 0 -31 22 -34 46 -6 23 27 23 27 59 6 45 -27 164 -38 199 -19
13 6 33 29 45 50 20 36 51 57 68 47 5 -3 6 -38 5 -77 -4 -70 -5 -73 -33 -83
-34 -13 -40 -32 -6 -21 32 9 57 34 57 56 0 17 5 19 33 13 17 -4 34 -9 35 -10
8 -7 -58 -92 -99 -131 -67 -60 -151 -122 -192 -139 -70 -29 -137 4 -267 134
-91 91 -128 145 -166 246 -6 18 -7 18 -11 2 -7 -30 51 -140 112 -211 57 -68
57 -68 29 -97 -36 -38 -23 -51 15 -15 30 28 30 28 79 -10 29 -23 52 -50 55
-64 6 -30 1 -38 -15 -22 -7 7 -21 12 -33 12 -11 0 -29 9 -39 21 -18 21 -46 22
-88 4 -11 -4 -18 -3 -18 4 0 6 -18 35 -41 63 -51 65 -108 177 -149 296 -31 88
-32 93 -16 117 14 21 20 23 36 15 24 -13 63 -13 55 0 -3 6 -14 10 -25 10 -24
0 -76 61 -85 100 -10 45 3 114 26 144 27 34 77 35 106 4z m93 -122 c0 -6 -7
-20 -15 -30 -14 -18 -15 -17 -15 23 0 38 2 42 15 31 8 -7 15 -18 15 -24z
m-250 -4 c0 -5 -9 -17 -20 -27 -12 -10 -30 -34 -42 -53 -18 -29 -20 -43 -15
-107 9 -99 41 -245 82 -366 42 -125 65 -165 93 -162 29 4 46 -28 31 -60 -11
-24 -11 -24 -68 5 -45 23 -76 31 -147 36 -89 7 -89 7 -97 67 -13 96 -2 420 17
490 19 70 58 131 105 162 35 24 61 30 61 15z m11 -83 c-18 -31 -13 -72 25
-181 44 -127 105 -246 161 -315 49 -61 56 -93 19 -93 -24 0 -56 -23 -56 -41 0
-16 -15 -10 -28 11 -11 18 -10 25 8 50 11 16 30 32 41 35 14 5 18 10 11 17
-14 14 -47 -10 -79 -56 -13 -20 -28 -34 -33 -31 -19 12 -102 293 -122 415 -23
139 -21 163 19 210 24 29 27 30 36 14 7 -12 6 -23 -2 -35z m35 -20 c3 -6 -1
-18 -10 -27 -15 -15 -16 -14 -16 11 0 27 13 36 26 16z m642 -52 c36 -9 48 -17
50 -34 4 -25 -21 -77 -51 -110 -25 -28 -88 -31 -165 -8 -41 13 -53 21 -58 41
-7 28 7 44 39 44 27 0 20 -17 -10 -25 -16 -4 -22 -10 -15 -12 21 -8 74 18 68
33 -9 23 67 18 98 -7 21 -17 26 -18 26 -5 0 39 -121 69 -152 38 -15 -15 -48
-16 -48 -1 0 14 21 52 34 62 13 9 117 0 184 -16z m-873 -19 c-8 -38 -15 -44
-190 -177 -71 -54 -149 -122 -173 -150 -107 -127 -156 -327 -121 -491 22 -105
245 -614 276 -633 5 -3 30 13 56 36 48 42 48 42 -14 172 -78 165 -153 355
-175 445 -19 79 -16 214 7 265 33 76 89 143 193 232 111 94 111 94 117 -69 3
-90 9 -175 13 -189 7 -24 10 -25 61 -21 61 5 128 -8 196 -39 46 -21 46 -21 41
-65 -3 -34 3 -62 32 -134 20 -49 36 -95 36 -101 0 -5 -11 -20 -24 -32 -15 -14
-33 -50 -46 -94 -14 -48 -26 -74 -38 -78 -34 -10 -69 -60 -91 -126 -21 -64
-49 -113 -111 -193 -32 -41 -46 -81 -61 -179 -6 -38 -6 -64 -1 -69 6 -6 12 10
17 44 12 98 34 155 84 220 56 74 72 103 96 178 20 61 37 85 77 106 22 11 32
29 49 87 12 39 26 78 32 85 15 19 29 14 17 -7 -15 -28 -4 -47 49 -84 66 -47
94 -57 161 -57 59 0 60 1 60 27 0 24 2 26 15 12 13 -13 12 -24 -14 -101 -24
-71 -27 -93 -21 -130 10 -50 2 -90 -30 -163 -12 -27 -41 -105 -65 -172 -70
-197 -151 -314 -240 -348 -177 -68 -411 177 -678 712 -53 105 -77 140 -77 112
0 -18 160 -322 225 -430 62 -101 157 -229 204 -273 17 -17 31 -33 31 -38 0 -4
-108 -62 -240 -128 -241 -120 -241 -120 -260 -87 -14 22 -20 50 -20 90 0 57
-1 58 -55 111 -64 62 -67 78 -34 196 19 68 20 91 14 230 -10 218 25 801 56
939 20 88 96 216 176 293 32 32 382 297 391 298 2 0 1 -15 -3 -32z m1143 -33
c-10 -21 -16 -24 -47 -19 -24 4 -43 0 -56 -9 -27 -20 -14 -31 19 -16 19 9 32
9 48 1 23 -11 23 -11 1 -11 -24 -1 -31 -15 -13 -26 18 -11 -9 -45 -35 -45 -55
0 -69 31 -45 97 15 40 37 53 92 53 47 0 47 0 36 -25z m78 4 c8 -13 -33 -85
-62 -108 -31 -25 -56 -28 -48 -6 4 8 9 13 13 11 4 -3 13 -1 21 4 12 7 12 13 4
27 -17 27 18 93 46 86 11 -3 23 -9 26 -14z m488 1 c36 -12 66 -23 66 -27 0 -3
-26 -3 -57 1 -62 7 -103 -9 -103 -41 0 -12 -3 -13 -14 -3 -15 12 -8 49 16 77
14 17 14 17 92 -7z m-1730 -99 c-7 -50 -8 -52 -113 -140 -189 -156 -242 -246
-242 -411 0 -69 6 -105 32 -185 32 -103 152 -387 194 -462 23 -43 23 -43 -13
-73 -37 -31 -37 -31 -102 103 -69 142 -147 323 -181 422 -29 84 -36 213 -15
295 42 166 112 257 305 400 59 44 114 87 121 95 19 23 22 13 14 -44z m1834 42
c34 -4 43 -10 48 -29 3 -13 12 -28 19 -34 8 -6 16 -39 20 -73 6 -61 6 -64 -72
-235 -78 -173 -78 -173 -108 -166 -36 7 -106 46 -125 69 -8 10 -13 36 -11 68
1 42 -3 59 -24 87 -32 43 -42 82 -51 187 -7 90 1 113 40 113 12 0 38 -16 57
-36 34 -35 34 -35 11 -55 -22 -17 -26 -17 -52 -4 -39 20 -47 19 -25 -5 10 -11
23 -20 30 -20 11 0 55 -52 55 -66 0 -3 18 -24 41 -46 34 -33 46 -39 76 -36 29
2 40 10 55 36 18 32 18 32 -5 32 -13 0 -28 5 -35 12 -9 9 -12 6 -12 -15 0 -19
4 -25 15 -21 9 4 15 0 15 -10 0 -11 -9 -16 -29 -16 -61 0 -74 23 -50 87 14 38
25 43 92 43 31 0 57 5 57 10 0 13 -116 13 -140 0 -11 -6 -24 -28 -30 -50 -13
-49 -30 -43 -30 10 0 44 15 91 33 102 7 4 45 8 85 8 46 0 71 4 67 10 -10 16
-137 12 -162 -5 -18 -13 -22 -13 -33 0 -10 12 -9 20 5 41 18 28 20 28 173 7z
m-1198 -32 c-5 -11 -15 -23 -20 -26 -14 -9 -12 19 2 33 19 19 30 14 18 -7z
m525 9 c3 -5 -1 -10 -9 -10 -8 0 -18 5 -21 10 -3 6 1 10 9 10 8 0 18 -4 21
-10z m485 -122 c0 -18 -2 -20 -9 -8 -6 8 -7 18 -5 22 9 14 14 9 14 -14z m-631
-152 c12 -18 34 -82 50 -142 30 -112 140 -358 170 -381 14 -10 13 -18 -16 -70
-36 -66 -63 -163 -62 -219 1 -50 12 -24 28 64 16 84 41 138 88 192 52 58 105
143 127 202 13 35 29 55 59 76 34 22 48 42 72 99 30 71 62 109 49 58 -14 -55
87 -135 173 -138 36 -2 48 2 48 13 0 21 19 28 23 8 2 -9 -13 -48 -32 -87 -30
-59 -36 -81 -36 -134 0 -55 -5 -71 -37 -123 -20 -32 -63 -108 -95 -168 -89
-166 -187 -292 -272 -350 -86 -58 -185 -26 -311 101 -86 86 -185 216 -185 241
0 11 9 69 19 130 17 95 25 118 59 168 50 74 74 122 69 137 -2 6 -23 -25 -47
-68 -24 -43 -45 -74 -47 -68 -2 6 7 58 20 117 13 59 21 109 16 112 -4 2 -12
-12 -18 -33 -19 -75 -80 -392 -107 -561 -27 -168 -27 -174 -10 -221 9 -26 14
-55 10 -64 -3 -10 -65 -47 -136 -83 -95 -47 -129 -60 -123 -47 4 10 11 29 15
43 4 14 22 57 41 95 30 63 33 78 31 154 -1 69 4 99 25 158 26 74 26 74 5 103
-21 28 -21 28 18 78 57 71 120 207 120 256 0 42 -29 118 -49 130 -6 4 -11 11
-11 16 0 15 60 42 109 49 53 7 63 29 37 79 -15 29 -15 29 36 71 28 22 52 41
54 41 1 0 12 -15 23 -34z m-119 -123 c0 -8 -12 -13 -29 -13 -39 0 -81 -16
-108 -42 -23 -21 -23 -21 -44 5 -11 15 -27 27 -35 27 -9 0 -14 11 -14 34 0 34
0 34 47 20 50 -15 101 -8 138 20 18 14 21 13 32 -12 7 -15 12 -33 13 -39z
m-346 31 c3 -9 6 -40 6 -70 0 -30 5 -54 10 -54 6 0 10 23 10 50 0 46 2 50 25
50 30 0 42 -21 51 -88 4 -29 11 -55 17 -59 7 -4 8 11 4 45 -6 54 1 63 27 37
14 -15 36 -75 36 -102 0 -6 5 -15 12 -19 8 -5 9 3 5 29 -3 21 -2 37 2 37 13 0
30 -46 36 -97 5 -41 1 -58 -29 -121 -20 -40 -56 -101 -80 -135 -24 -34 -48
-75 -52 -90 -3 -16 -13 -31 -22 -35 -28 -10 -121 16 -166 47 -44 30 -44 31
-43 88 0 46 -7 77 -36 146 -20 48 -37 99 -37 113 0 42 59 172 82 179 11 4 22
5 24 2 2 -2 -5 -33 -16 -68 -22 -71 -25 -93 -10 -84 5 3 21 44 36 91 14 47 34
94 45 105 23 23 55 25 63 3z m336 -761 c19 -27 59 -75 90 -107 39 -42 51 -60
41 -64 -8 -3 -48 -23 -89 -44 -41 -22 -75 -38 -77 -36 -1 2 -10 27 -20 57 -15
47 -16 63 -6 125 15 89 21 116 24 116 2 0 19 -21 37 -47z"/>
<path d="M3139 3385 c67 -63 119 -137 146 -207 10 -27 22 -48 26 -48 14 0 11
16 -15 73 -33 71 -103 165 -153 205 -66 52 -69 36 -4 -23z"/>
<path d="M2510 2854 c0 -3 11 -15 24 -25 17 -13 27 -34 32 -64 7 -48 24 -71
24 -33 0 43 -21 97 -43 113 -22 16 -37 19 -37 9z"/>
<path d="M2894 2366 c-17 -43 32 -121 92 -147 37 -17 50 -18 78 -9 33 11 116
75 116 89 0 5 -24 11 -53 14 -45 4 -150 35 -209 61 -12 6 -20 3 -24 -8z m114
-42 c35 -13 79 -24 98 -24 23 0 33 -4 28 -11 -18 -29 -224 29 -224 63 0 6 7 7
18 3 9 -4 45 -18 80 -31z m60 -60 c34 -5 40 -9 32 -20 -30 -35 -103 -24 -152
24 -46 43 -35 54 24 27 29 -14 72 -27 96 -31z"/>
<path d="M2020 2051 c0 -5 12 -20 28 -33 47 -40 98 -110 137 -188 21 -41 40
-70 42 -63 8 23 -80 175 -135 234 -51 56 -72 70 -72 50z"/>
<path d="M2230 1696 c0 -17 71 -198 107 -276 65 -136 64 -95 0 52 -30 68 -62
147 -71 176 -10 28 -22 52 -27 52 -5 0 -9 -2 -9 -4z"/>
<path d="M2520 1402 c0 -4 14 -24 31 -45 50 -61 154 -103 222 -90 46 9 30 20
-30 20 -71 0 -127 26 -175 83 -34 39 -48 48 -48 32z"/>
<path d="M2281 1210 c-60 -44 -156 -179 -138 -196 2 -2 20 22 40 54 33 54 93
120 142 156 11 9 15 16 9 16 -6 0 -30 -14 -53 -30z"/>
<path d="M2047 684 c-71 -48 -128 -67 -204 -68 -40 0 -73 -4 -73 -8 0 -15 75
-20 126 -9 85 19 210 88 192 106 -2 2 -21 -7 -41 -21z"/>
<path d="M3906 2198 c-9 -12 -16 -36 -16 -53 1 -27 3 -25 20 19 22 56 20 69
-4 34z"/>
<path d="M3720 1902 c0 -21 41 -70 83 -98 42 -27 157 -48 143 -26 -4 7 -23 12
-42 12 -49 0 -105 32 -148 82 -19 24 -36 37 -36 30z"/>
<path d="M3388 1592 c-33 -34 -88 -122 -88 -139 0 -26 17 -12 36 29 10 24 34
62 52 86 38 50 38 65 0 24z"/>
<path d="M3696 1058 c-225 -157 -643 -455 -658 -470 -23 -23 -23 -80 0 -101
10 -9 192 -59 424 -116 336 -83 412 -99 434 -91 26 10 114 87 454 393 222 201
240 220 240 256 0 16 -8 39 -18 51 -15 19 -55 27 -377 76 -198 29 -374 54
-392 54 -22 0 -54 -16 -107 -52z m491 -22 c195 -29 359 -58 367 -66 9 -7 16
-25 16 -40 0 -24 -36 -61 -247 -252 -425 -383 -418 -378 -456 -378 -43 0 -796
187 -814 202 -8 6 -13 24 -11 40 3 25 47 60 368 288 284 202 372 260 395 259
17 0 188 -24 382 -53z"/>
<path d="M3654 967 c-78 -56 -227 -163 -332 -237 -105 -74 -191 -140 -192
-146 0 -6 168 -49 375 -97 376 -88 376 -88 409 -60 56 47 447 402 515 467 76
72 113 57 -297 121 -158 25 -298 47 -312 50 -20 4 -54 -16 -166 -98z m496 28
c157 -25 291 -46 298 -48 7 -1 -118 -120 -278 -265 -290 -263 -290 -263 -650
-180 -198 45 -360 85 -360 88 0 3 38 31 83 62 45 31 188 134 317 227 218 158
238 171 270 166 19 -3 163 -25 320 -50z"/>
<path d="M4105 870 c-46 -27 -53 -28 -94 -18 -52 13 -93 1 -159 -45 -49 -35
-79 -79 -84 -121 -3 -25 1 -30 32 -41 19 -6 35 -18 35 -26 0 -20 -64 -13 -97
11 -34 25 -50 25 -71 2 -25 -27 -21 -32 24 -32 22 0 60 -5 85 -11 37 -10 44
-15 39 -30 -4 -13 -1 -19 8 -19 18 0 264 138 274 153 19 29 82 191 77 199 -8
12 -14 10 -69 -22z m29 -32 c-3 -12 -18 -47 -33 -79 -25 -57 -29 -60 -140
-124 -63 -36 -116 -64 -117 -62 -2 1 14 40 34 86 37 83 37 83 134 135 53 28
100 55 104 59 15 14 25 6 18 -15z m-125 -7 c11 -7 -2 -17 -48 -41 -56 -28 -65
-37 -87 -86 -21 -49 -27 -54 -47 -49 -35 11 -41 22 -28 53 16 37 53 73 111
106 47 27 75 32 99 17z"/>
<path d="M3574 847 c-3 -14 -20 -31 -40 -41 -38 -18 -37 -36 2 -36 13 0 24 -6
24 -12 0 -7 4 -19 9 -27 7 -11 14 -10 39 8 17 12 45 21 66 21 38 0 43 8 24 40
-10 15 -9 23 7 40 24 27 14 35 -29 20 -25 -8 -41 -8 -55 -1 -30 16 -40 13 -47
-12z m76 -9 c21 1 25 -4 26 -29 1 -23 -3 -29 -21 -29 -11 0 -30 -7 -41 -15
-25 -19 -34 -19 -34 0 0 8 -7 15 -15 15 -21 0 -19 13 5 28 11 7 20 19 20 28 0
12 5 14 18 8 9 -4 28 -7 42 -6z"/>
<path d="M4465 873 c-189 -178 -561 -504 -583 -510 -14 -3 -123 18 -266 52
-132 31 -306 72 -386 91 -80 19 -153 37 -162 40 -22 7 -24 -12 -3 -20 8 -3
111 -28 228 -56 116 -27 288 -68 381 -90 93 -22 182 -40 197 -40 18 0 47 17
86 49 118 99 597 536 601 549 8 25 -15 9 -93 -65z"/>
</g>
</svg>
